<svg width="261" height="261" viewBox="0 0 261 261" fill="none" xmlns="http://www.w3.org/2000/svg">
<g filter="url(#filter0_d_603_63)">
<rect x="40.724" y="36.4058" width="180" height="180" rx="32" fill="#1D1F23"/>
<rect x="41.224" y="36.9058" width="179" height="179" rx="31.5" stroke="black"/>
</g>
<g clip-path="url(#clip0_603_63)">
<path d="M161.489 139.822C162.539 140.872 161.794 142.667 160.311 142.667H132.667C131.744 142.667 131 143.411 131 144.333V171.978C131 173.461 129.206 174.206 128.156 173.156L98.3166 143.317C97.9 142.9 97.6666 142.333 97.6666 141.744V111C97.6666 110.078 98.4111 109.333 99.3333 109.333H131L161.489 139.822Z" fill="white"/>
<path d="M131 109.333L100.511 78.8444C99.4611 77.7944 100.206 76 101.689 76H162.667C163.589 76 164.333 76.7444 164.333 77.6667V107.667C164.333 108.589 163.589 109.333 162.667 109.333H131Z" fill="white"/>
</g>
<defs>
<filter id="filter0_d_603_63" x="0.723999" y="0.405762" width="260" height="260" filterUnits="userSpaceOnUse" color-interpolation-filters="sRGB">
<feFlood flood-opacity="0" result="BackgroundImageFix"/>
<feColorMatrix in="SourceAlpha" type="matrix" values="0 0 0 0 0 0 0 0 0 0 0 0 0 0 0 0 0 0 127 0" result="hardAlpha"/>
<feOffset dy="4"/>
<feGaussianBlur stdDeviation="20"/>
<feComposite in2="hardAlpha" operator="out"/>
<feColorMatrix type="matrix" values="0 0 0 0 0.0367917 0 0 0 0 0.0348958 0 0 0 0 0.0484375 0 0 0 0.1 0"/>
<feBlend mode="normal" in2="BackgroundImageFix" result="effect1_dropShadow_603_63"/>
<feBlend mode="normal" in="SourceGraphic" in2="effect1_dropShadow_603_63" result="shape"/>
</filter>
<clipPath id="clip0_603_63">
<rect width="66.6667" height="100" fill="white" transform="translate(97.6666 76)"/>
</clipPath>
</defs>
</svg>
