<svg width="261" height="261" viewBox="0 0 261 261" fill="none" xmlns="http://www.w3.org/2000/svg">
<g filter="url(#filter0_d_602_23)">
<rect x="40.4479" y="36.4058" width="180" height="180" rx="32" fill="#1D1F23"/>
<rect x="40.9479" y="36.9058" width="179" height="179" rx="31.5" stroke="black"/>
</g>
<path d="M178.134 98.8158C178.169 98.9483 178.188 99.0849 178.188 99.2222V120.556C178.188 120.83 178.116 121.099 177.978 121.336C177.841 121.573 177.644 121.77 177.406 121.906L159.5 132.215V152.649C159.5 153.205 159.205 153.718 158.722 153.998L121.345 175.515C121.259 175.564 121.166 175.595 121.073 175.628C121.038 175.64 121.005 175.661 120.968 175.671C120.706 175.74 120.432 175.74 120.171 175.671C120.128 175.659 120.089 175.636 120.048 175.62C119.962 175.589 119.873 175.562 119.791 175.515L82.4217 153.998C82.1843 153.862 81.987 153.665 81.8498 153.428C81.7126 153.192 81.6402 152.923 81.64 152.649V88.6465C81.64 88.5065 81.6595 88.3704 81.6945 88.2382C81.7061 88.1934 81.7333 88.1526 81.7489 88.1079C81.7781 88.0262 81.8053 87.9426 81.8481 87.8668C81.8772 87.8162 81.92 87.7754 81.955 87.7287C81.9997 87.6665 82.0406 87.6023 82.0931 87.5479C82.1378 87.5032 82.1961 87.4701 82.2467 87.4312C82.3031 87.3846 82.3536 87.334 82.4178 87.2971H82.4197L101.106 76.5386C101.342 76.4025 101.61 76.3308 101.883 76.3308C102.156 76.3308 102.424 76.4025 102.661 76.5386L121.347 87.2971H121.351C121.413 87.336 121.466 87.3846 121.522 87.4293C121.572 87.4682 121.629 87.5032 121.674 87.546C121.728 87.6023 121.767 87.6665 121.814 87.7287C121.847 87.7754 121.891 87.8162 121.919 87.8668C121.963 87.9446 121.989 88.0262 122.02 88.1079C122.035 88.1526 122.062 88.1934 122.074 88.2401C122.11 88.3726 122.128 88.5092 122.129 88.6465V128.622L137.699 119.656V99.2202C137.699 99.0841 137.719 98.9461 137.754 98.8158C137.767 98.7691 137.793 98.7283 137.808 98.6836C137.839 98.6019 137.867 98.5183 137.909 98.4425C137.939 98.3919 137.981 98.3511 138.014 98.3044C138.061 98.2422 138.1 98.178 138.154 98.1236C138.199 98.0789 138.256 98.0458 138.306 98.0069C138.364 97.9603 138.415 97.9097 138.477 97.8728H138.479L157.167 87.1143C157.403 86.978 157.672 86.9062 157.945 86.9062C158.218 86.9062 158.486 86.978 158.722 87.1143L177.408 97.8728C177.474 97.9116 177.525 97.9603 177.583 98.005C177.632 98.0439 177.688 98.0789 177.733 98.1216C177.787 98.178 177.826 98.2422 177.873 98.3044C177.908 98.3511 177.951 98.3919 177.978 98.4425C178.023 98.5183 178.048 98.6019 178.079 98.6836C178.097 98.7283 178.122 98.7691 178.134 98.8158ZM175.073 119.656V101.915L168.534 105.68L159.5 110.881V128.622L175.075 119.656H175.073ZM156.387 151.749V133.996L147.501 139.071L122.127 153.553V171.473L156.387 151.749ZM84.755 91.3395V151.749L119.012 171.471V153.555L101.115 143.427L101.109 143.423L101.102 143.419C101.041 143.384 100.991 143.333 100.934 143.29C100.886 143.252 100.829 143.22 100.787 143.178L100.783 143.172C100.732 143.123 100.697 143.063 100.654 143.008C100.616 142.956 100.569 142.911 100.538 142.857L100.536 142.851C100.501 142.793 100.479 142.723 100.454 142.657C100.429 142.598 100.396 142.544 100.38 142.482V142.48C100.361 142.406 100.357 142.328 100.349 142.252C100.341 142.194 100.326 142.135 100.326 142.077V100.305L91.294 95.102L84.755 91.3415V91.3395ZM101.885 79.6847L86.3163 88.6465L101.881 97.6083L117.448 88.6446L101.881 79.6847H101.885ZM109.982 135.614L119.014 130.415V91.3395L112.475 95.1039L103.441 100.305V139.38L109.982 135.614ZM157.945 90.2604L142.378 99.2222L157.945 108.184L173.51 99.2202L157.945 90.2604ZM156.387 110.881L147.353 105.68L140.814 101.915V119.656L149.846 124.855L156.387 128.622V110.881ZM120.567 150.86L143.4 137.825L154.814 131.311L139.259 122.355L121.349 132.666L105.025 142.064L120.567 150.86Z" fill="#FF2D20"/>
<defs>
<filter id="filter0_d_602_23" x="0.447876" y="0.405762" width="260" height="260" filterUnits="userSpaceOnUse" color-interpolation-filters="sRGB">
<feFlood flood-opacity="0" result="BackgroundImageFix"/>
<feColorMatrix in="SourceAlpha" type="matrix" values="0 0 0 0 0 0 0 0 0 0 0 0 0 0 0 0 0 0 127 0" result="hardAlpha"/>
<feOffset dy="4"/>
<feGaussianBlur stdDeviation="20"/>
<feComposite in2="hardAlpha" operator="out"/>
<feColorMatrix type="matrix" values="0 0 0 0 0.0367917 0 0 0 0 0.0348958 0 0 0 0 0.0484375 0 0 0 0.1 0"/>
<feBlend mode="normal" in2="BackgroundImageFix" result="effect1_dropShadow_602_23"/>
<feBlend mode="normal" in="SourceGraphic" in2="effect1_dropShadow_602_23" result="shape"/>
</filter>
</defs>
</svg>
