<svg width="261" height="261" viewBox="0 0 261 261" fill="none" xmlns="http://www.w3.org/2000/svg">
<g filter="url(#filter0_d_602_46)">
<rect x="40.0673" y="36.4058" width="180" height="180" rx="32" fill="#1D1F23"/>
<rect x="40.5673" y="36.9058" width="179" height="179" rx="31.5" stroke="black"/>
</g>
<path opacity="0.45" d="M145.988 76.002L129.911 104.575H97.78L113.844 76.002H145.988Z" fill="white"/>
<path opacity="0.6" d="M129.911 104.575H162.052L145.989 76.002H113.844L129.911 104.575Z" fill="white"/>
<path opacity="0.8" d="M113.844 133.136L129.911 104.575L113.844 76.002L97.78 104.575L113.844 133.136Z" fill="white"/>
<path opacity="0.45" d="M114.001 175.998L130.077 147.425H162.22L146.144 175.998H114.001Z" fill="white"/>
<path opacity="0.6" d="M130.077 147.425H97.9374L114.001 175.998H146.144L130.077 147.425Z" fill="white"/>
<path opacity="0.8" d="M146.144 118.862L130.077 147.425L146.144 175.998L162.22 147.425L146.144 118.862Z" fill="white"/>
<defs>
<filter id="filter0_d_602_46" x="0.0672607" y="0.405762" width="260" height="260" filterUnits="userSpaceOnUse" color-interpolation-filters="sRGB">
<feFlood flood-opacity="0" result="BackgroundImageFix"/>
<feColorMatrix in="SourceAlpha" type="matrix" values="0 0 0 0 0 0 0 0 0 0 0 0 0 0 0 0 0 0 127 0" result="hardAlpha"/>
<feOffset dy="4"/>
<feGaussianBlur stdDeviation="20"/>
<feComposite in2="hardAlpha" operator="out"/>
<feColorMatrix type="matrix" values="0 0 0 0 0.0367917 0 0 0 0 0.0348958 0 0 0 0 0.0484375 0 0 0 0.1 0"/>
<feBlend mode="normal" in2="BackgroundImageFix" result="effect1_dropShadow_602_46"/>
<feBlend mode="normal" in="SourceGraphic" in2="effect1_dropShadow_602_46" result="shape"/>
</filter>
</defs>
</svg>
